<svg xmlns="http://www.w3.org/2000/svg" viewBox="0 0 54.97 30.824"><defs><style>.a{fill:#222222;}</style></defs><g transform="translate(0 -134.412)"><g transform="translate(0 134.412)"><path class="a" d="M20.368,156.053a4.591,4.591,0,1,0,4.588,4.6A4.59,4.59,0,0,0,20.368,156.053Zm0,6.889a2.294,2.294,0,1,1,2.294-2.294A2.3,2.3,0,0,1,20.368,162.942Zm34.6-10.283v4.9a2.213,2.213,0,0,1-2.213,2.213H50.389a6.072,6.072,0,0,0-12.015,0h-12a6.067,6.067,0,0,0-12.008,0H11.4a2.213,2.213,0,0,1-2.213-2.213v-4.9Zm-10.586,3.394a4.591,4.591,0,1,0,4.588,4.6A4.6,4.6,0,0,0,44.384,156.053Zm0,6.889a2.294,2.294,0,1,1,2.294-2.294A2.3,2.3,0,0,1,44.384,162.942ZM54.1,147.726l-8.7-8.6a2.956,2.956,0,0,0-2.073-.856H38.94v-1.645a2.21,2.21,0,0,0-2.213-2.213H11.4a2.214,2.214,0,0,0-2.213,2.213v.347L.207,138.006l15.911,2.072L0,141.679l16.061,2.283L0,145.355l9.187,1.733v4.348H54.968V149.82A2.964,2.964,0,0,0,54.1,147.726Zm-3.791.288H41.891a.346.346,0,0,1-.347-.347v-6.5a.346.346,0,0,1,.347-.347h1.6a.374.374,0,0,1,.243.1l6.808,6.5A.346.346,0,0,1,50.307,148.013Z" transform="translate(0 -134.412)"/></g></g></svg>
