<?xml version="1.0" encoding="UTF-8" standalone="no"?>
<!-- Generator: Adobe Illustrator 16.0.0, SVG Export Plug-In . SVG Version: 6.00 Build 0)  -->

<svg
   xmlns:dc="http://purl.org/dc/elements/1.1/"
   xmlns:cc="http://creativecommons.org/ns#"
   xmlns:rdf="http://www.w3.org/1999/02/22-rdf-syntax-ns#"
   xmlns:svg="http://www.w3.org/2000/svg"
   xmlns="http://www.w3.org/2000/svg"
   xmlns:sodipodi="http://sodipodi.sourceforge.net/DTD/sodipodi-0.dtd"
   xmlns:inkscape="http://www.inkscape.org/namespaces/inkscape"
   version="1.1"
   id="Vrstva_1"
   x="0px"
   y="0px"
   width="521.65997"
   height="126.27197"
   viewBox="0 0 521.66 126.272"
   enable-background="new 0 0 708.66 654.272"
   xml:space="preserve"
   sodipodi:docname="logo-mpizza.svg"
   inkscape:version="0.92.2 (5c3e80d, 2017-08-06)"><metadata
     id="metadata3873"><rdf:RDF><cc:Work
         rdf:about=""><dc:format>image/svg+xml</dc:format><dc:type
           rdf:resource="http://purl.org/dc/dcmitype/StillImage" /><dc:title></dc:title></cc:Work></rdf:RDF></metadata><defs
     id="defs3871" /><sodipodi:namedview
     pagecolor="#ffffff"
     bordercolor="#666666"
     borderopacity="1"
     objecttolerance="10"
     gridtolerance="10"
     guidetolerance="10"
     inkscape:pageopacity="0"
     inkscape:pageshadow="2"
     inkscape:window-width="1449"
     inkscape:window-height="1022"
     id="namedview3869"
     showgrid="false"
     inkscape:zoom="1.4428251"
     inkscape:cx="409.30435"
     inkscape:cy="283.08537"
     inkscape:window-x="885"
     inkscape:window-y="427"
     inkscape:window-maximized="0"
     inkscape:current-layer="Vrstva_1" /><path
     d="m 8.0510549,69.517166 h 6.4720001 v -18.983 H 8.0510549 v -16.083 H 41.060055 v 7.554 c 3.777,-3.343 10.897,-8.414 22.122,-8.414 8.627,0 14.665,3.352 17.582003,9.922 7.979,-6.686 15.64,-9.922 23.939002,-9.922 10.684,0 19,6.047 19,21.475 v 14.452 h 6.792 V 85.583177 H 97.157058 V 57.433166 c 0,-4.637 -2.482,-6.588 -5.94,-6.588 -2.802,0 -6.145,1.304 -8.84,3.245 v 15.428 h 7.333 V 85.583177 H 55.840055 V 57.433166 c 0,-4.637 -1.835,-6.588 -5.94,-6.588 -2.802,0 -6.029,1.197 -8.839,3.245 v 15.428 h 7.333 V 85.583177 H 8.0520549 V 69.517166 Z"
     id="path3804"
     inkscape:connector-curvature="0" /><path
     d="m 142.28806,68.000166 h 7.12 v -38.081 h -7.12 V 12.33722 h 49.403 c 23.203,0 32.149,10.781996 32.149,23.087946 0,8.84 -5.284,22.548 -29.117,22.548 h -16.935 v 10.027 h 7.324 v 17.582011 h -42.825 V 68.000166 Z m 43.268,-26.103 c 5.825,0 8.636,-2.367 8.636,-6.694 0,-4.415 -2.385,-6.791 -9.504,-6.791 h -6.898 v 13.485 z"
     id="path3806"
     inkscape:connector-curvature="0" /><path
     d="m 227.75106,69.517176 h 5.284 v -18.983 h -5.284 v -16.083 h 31.821 v 35.066 h 4.425 v 16.065011 h -36.246 z m 31.927,-49.624948 c 0,4.955948 -5.169,9.167948 -14.346,9.167948 -8.742,0 -14.461,-3.343 -14.461,-9.167948 0,-4.965989 6.162,-9.061998 14.461,-9.061998 8.308,0 14.346,3.776999 14.346,9.061998"
     id="path3808"
     inkscape:connector-curvature="0" /><polygon
     points="418.839,327.739 418.839,321.585 429.842,321.585 429.842,339.814 368.238,339.814 368.238,326.338 396.938,300.768 379.569,300.768 379.569,306.7 368.673,306.7 368.673,288.683 430.373,288.683 430.373,301.308 401.248,327.739 "
     id="polygon3810"
     transform="translate(-97.724947,-254.23277)" /><polygon
     points="488.041,327.739 488.041,321.585 499.044,321.585 499.044,339.814 437.44,339.814 437.44,326.338 466.141,300.768 448.771,300.768 448.771,306.7 437.875,306.7 437.875,288.683 499.576,288.683 499.576,301.308 470.449,327.739 "
     id="polygon3812"
     transform="translate(-97.724947,-254.23277)" /><path
     d="m 408.80206,46.748176 c 4.211,-10.135 13.698,-13.806 33.337,-13.806 23.948,0 33.763,5.072 33.763,19.09 v 17.476 h 6.694 v 16.083011 h -33.23 v -4.531011 c -3.023,2.695005 -6.366,5.505014 -18.229,5.505014 -15.756,0 -21.9,-8.307014 -21.9,-15.977014 0,-9.699 9.922,-16.394 24.374,-16.394 6.153,0 12.085,0.976 15.756,2.695 v -4.637 c 0,-4.425 -3.228,-8.308 -9.922,-8.308 -4.202,0 -7.66,1.72 -9.931,4.965 z m 40.564,16.509 c -2.474,-1.295 -4.859,-1.941 -7.448,-1.941 -4.53,0 -7.66,2.802 -7.66,6.906 0,5.178 3.883,7.333 7.129,7.333 2.801,0 5.931,-1.188 7.979,-3.023 z"
     id="path3814"
     inkscape:connector-curvature="0" /><rect
     x="8.0690536"
     y="12.293466"
     width="122.427"
     height="16.73"
     id="rect3816"
     style="fill:#008d39" /><rect
     x="271.00906"
     y="12.293466"
     width="211.58701"
     height="16.73"
     id="rect3818"
     style="fill:#e31119" /><path
     d="m 514.29406,18.092218 c -1.028,-1.844999 -2.474,-3.262989 -4.317,-4.264988 -1.845,-0.99301 -3.742,-1.49001 -5.675,-1.49001 -1.941,0 -3.83,0.497 -5.675,1.49001 -1.853,1.001999 -3.298,2.419989 -4.317,4.264988 -1.038,1.852999 -1.552,3.784999 -1.552,5.797998 0,1.98595 0.506,3.90095 1.525,5.73695 1.011,1.835 2.438,3.254 4.273,4.273 1.835,1.02 3.75,1.524 5.745,1.524 1.995,0 3.91,-0.505 5.745,-1.524 1.827,-1.02 3.254,-2.438 4.266,-4.273 1.01,-1.836 1.524,-3.751 1.524,-5.73695 10e-4,-2.012999 -0.514,-3.945999 -1.542,-5.797998 m -1.64,10.576948 c -0.852,1.517 -2.031,2.704 -3.564,3.564 -1.534,0.852 -3.121,1.276 -4.788,1.276 -1.658,0 -3.254,-0.425 -4.797,-1.276 -1.524,-0.86 -2.713,-2.048 -3.563,-3.564 -0.852,-1.524 -1.277,-3.121 -1.277,-4.77895 0,-1.675999 0.435,-3.279999 1.304,-4.831998 0.859,-1.542 2.065,-2.721999 3.6,-3.563999 1.534,-0.824 3.112,-1.24099 4.734,-1.24099 1.604,0 3.192,0.41699 4.726,1.24099 1.543,0.843 2.74,2.021999 3.6,3.563999 0.86,1.551999 1.304,3.155999 1.304,4.831998 -0.003,1.65795 -0.437,3.25395 -1.279,4.77895 m -6.508,-4.39795 v -0.063 c 1.348,-0.461 2.429,-1.595999 2.429,-3.270999 0,-1.019999 -0.381,-1.896999 -1.011,-2.455999 -0.798,-0.727 -1.968,-1.072 -3.75,-1.072 -1.135,0 -2.35,0.115 -3.201,0.283 v 12.723948 h 1.667 v -5.595 h 1.569 c 1.516,0.053 2.226,0.727 2.606,2.509 0.347,1.614 0.63,2.722 0.843,3.086 h 1.729 c -0.257,-0.497 -0.559,-1.747 -0.984,-3.547 -0.329,-1.339 -0.914,-2.26096 -1.897,-2.59795 m -2.164,-0.709 h -1.702 v -4.698998 c 0.293,-0.071 0.843,-0.151 1.649,-0.151 1.764,0 2.97,0.728 2.97,2.394999 0,1.471 -1.135,2.454999 -2.917,2.454999"
     id="path3820"
     inkscape:connector-curvature="0"
     style="clip-rule:evenodd;fill-rule:evenodd" /><polygon
     points="275.354,366.822 278.502,366.822 277.872,369.969 274.733,369.969 "
     id="polygon3822"
     transform="translate(-97.724947,-254.23277)" /><polygon
     points="282.27,366.822 285.409,366.822 284.788,369.969 281.641,369.969 "
     id="polygon3824"
     transform="translate(-97.724947,-254.23277)" /><polygon
     points="289.177,366.822 292.324,366.822 291.686,369.969 288.547,369.969 "
     id="polygon3826"
     transform="translate(-97.724947,-254.23277)" /><path
     d="m 209.96406,115.8887 c 0,-4.3465 -0.656,-8.09652 -1.977,-11.25253 -0.391,-0.922 -0.683,-1.463 -0.887,-1.605 -0.195,-0.141 -0.78,-0.248 -1.773,-0.318 l -0.23,-0.01 0.159,-0.78901 h 4.593 c 1.33,3.13102 2.128,6.80102 2.395,11.00406 l 2.323,-2.73002 c 1.986,-2.34202 2.979,-4.37102 2.979,-6.08203 0,-0.789 -0.319,-1.518 -0.958,-2.19101 h 3.085 c 0.177,0.40801 0.266,0.85201 0.266,1.34801 0,0.861 -0.416,1.88101 -1.232,3.08601 -0.824,1.197 -2.66,3.43202 -5.506,6.69304 l -2.456,2.84848 h -0.781 z"
     id="path3828"
     inkscape:connector-curvature="0" /><path
     d="m 229.07206,115.7367 1.17,-5.8345 c -1.063,1.863 -2.234,3.35202 -3.528,4.46902 -1.295,1.11748 -2.5,1.68648 -3.618,1.68648 -0.913,0 -1.596,-0.275 -2.04,-0.807 -0.452,-0.54148 -0.683,-1.33048 -0.683,-2.39548 0,-2.75802 0.976,-5.32804 2.908,-7.69504 1.942,-2.37701 4.034,-3.55702 6.286,-3.55702 0.24,0 0.55,0.027 0.922,0.072 0.373,0.053 0.816,0.133 1.33,0.238 h 2.5 l -2.075,10.52505 c -0.142,0.69101 -0.213,1.30301 -0.213,1.81601 0,0.275 0.08,0.436 0.249,0.498 0.16,0.053 0.692,0.12347 1.587,0.17647 l 0.222,0.018 -0.142,0.789 h -4.875 z m 1.543,-7.73152 0.886,-4.40601 c -0.497,-0.266 -0.993,-0.453 -1.507,-0.586 -0.523,-0.123 -1.046,-0.178 -1.596,-0.178 -1.277,0 -2.288,0.568 -3.086,1.713 -0.62,0.92201 -1.161,2.137 -1.604,3.66001 -0.452,1.53501 -0.674,2.90802 -0.674,4.13303 0,0.61101 0.098,1.06401 0.302,1.37301 0.204,0.303 0.505,0.453 0.913,0.453 1.613,0 3.741,-2.05601 6.366,-6.16204"
     id="path3830"
     inkscape:connector-curvature="0" /><path
     d="m 235.45606,114.96686 0.621,-3.1585 h 1.241 l -0.018,0.24001 c -0.115,0.83401 -0.168,1.31301 -0.168,1.43601 0,0.443 0.311,0.861 0.922,1.225 0.621,0.37348 1.304,0.54948 2.066,0.54948 0.745,0 1.366,-0.221 1.871,-0.69148 0.506,-0.461 0.754,-1.037 0.754,-1.719 0,-0.68401 -0.346,-1.40202 -1.055,-2.14602 l -1.321,-1.40001 c -1.552,-1.62301 -2.323,-2.94301 -2.323,-3.97301 0,-1.09001 0.443,-1.97701 1.313,-2.67801 0.887,-0.709 2.013,-1.05501 3.387,-1.05501 0.656,0 1.313,0.07 1.951,0.23 0.629,0.15001 1.259,0.39101 1.871,0.69901 l -0.612,3.06801 h -1.25 l 0.027,-0.23 c 0.053,-0.416 0.088,-0.71901 0.124,-0.90401 0.053,-0.266 0.071,-0.479 0.071,-0.646 0,-0.479 -0.186,-0.844 -0.585,-1.082 -0.39,-0.24 -0.984,-0.363 -1.773,-0.363 -0.621,0 -1.153,0.23 -1.579,0.682 -0.425,0.443 -0.638,1.012 -0.638,1.668 0,0.66401 0.426,1.41801 1.25,2.25201 l 1.321,1.32 c 1.454,1.43801 2.181,2.74802 2.181,3.93803 0,1.15201 -0.461,2.07401 -1.383,2.78349 -0.914,0.684 -2.119,1.037 -3.636,1.037 -0.745,0 -1.507,-0.088 -2.27,-0.266 -0.782,-0.187 -1.562,-0.462 -2.36,-0.816 m 13.485,-19.330653 -3.697,3.770012 h -2.651 l -1.835,-3.770012 h 0.887 l 2.678,2.314009 3.635,-2.314009 z"
     id="path3832"
     inkscape:connector-curvature="0" /><path
     d="m 258.80006,113.53822 c -2.526,1.67648 -4.77,2.50848 -6.711,2.50848 -1.294,0 -2.323,-0.434 -3.094,-1.30348 -0.763,-0.877 -1.153,-2.05701 -1.153,-3.52902 0,-2.47302 0.877,-4.69903 2.598,-6.66603 1.737,-1.961 3.688,-2.95301 5.86,-2.95301 0.815,0 1.508,0.248 2.048,0.74401 0.532,0.496 0.808,1.127 0.808,1.889 0,1.71101 -0.789,3.12101 -2.359,4.22101 -1.579,1.10001 -3.688,1.71102 -6.322,1.83602 l -0.018,0.656 c 0,1.21301 0.257,2.12702 0.763,2.74802 0.514,0.611 1.276,0.912 2.287,0.912 1.711,0 3.547,-0.734 5.523,-2.18901 z m -8.272,-3.99003 c 1.933,-0.143 3.449,-0.64801 4.54,-1.49801 1.1,-0.852 1.649,-1.951 1.649,-3.29901 0,-0.674 -0.142,-1.188 -0.417,-1.533 -0.284,-0.338 -0.7,-0.506 -1.268,-0.506 -1.117,0 -2.102,0.646 -2.944,1.932 -0.85,1.27701 -1.374,2.91801 -1.56,4.90402"
     id="path3834"
     inkscape:connector-curvature="0" /><path
     d="m 268.98806,120.76371 3.095,-15.56152 c 0.15,-0.69101 0.222,-1.30301 0.222,-1.79901 0,-0.275 -0.08,-0.436 -0.248,-0.496 -0.151,-0.063 -0.691,-0.125 -1.588,-0.188 l -0.248,-0.018 0.16,-0.78901 h 4.885 l -1.161,5.79902 c 1.011,-1.844 2.154,-3.32401 3.431,-4.44101 1.26,-1.117 2.438,-1.67601 3.521,-1.67601 0.887,0 1.561,0.275 1.995,0.79701 0.452,0.523 0.665,1.33 0.665,2.395 0,2.76601 -0.94,5.32003 -2.847,7.70504 -1.896,2.37748 -3.963,3.55549 -6.18,3.55549 -0.426,0 -1.152,-0.098 -2.189,-0.318 l -0.993,5.035 z m 4.734,-11.12751 -0.912,4.41603 c 1.01,0.506 2.029,0.76247 3.059,0.76247 1.215,0 2.207,-0.58447 2.979,-1.73647 0.604,-0.89601 1.117,-2.11102 1.552,-3.63703 0.435,-1.53301 0.647,-2.90802 0.647,-4.13101 0,-0.61101 -0.098,-1.06401 -0.293,-1.37501 -0.186,-0.311 -0.479,-0.451 -0.877,-0.451 -1.571,0 -3.627,2.04701 -6.155,6.15202"
     id="path3836"
     inkscape:connector-curvature="0" /><path
     d="m 285.60306,115.72886 2.102,-10.51652 c 0.133,-0.70101 0.195,-1.31301 0.195,-1.80901 0,-0.275 -0.08,-0.436 -0.23,-0.506 -0.159,-0.053 -0.691,-0.115 -1.604,-0.186 l -0.222,-0.01 0.15,-0.78901 h 4.877 l -2.093,10.52505 c -0.142,0.69101 -0.204,1.30301 -0.204,1.81601 0,0.275 0.071,0.443 0.239,0.498 0.151,0.061 0.683,0.11547 1.587,0.17647 l 0.24,0.01 -0.16,0.78901 h -4.877 z m 3.255,-16.322641 0.496,-2.502009 h 2.527 l -0.497,2.502009 z"
     id="path3838"
     inkscape:connector-curvature="0" /><path
     d="m 291.77506,115.73671 0.177,-0.94701 10.383,-11.92652 h -3.972 c -1.002,0 -1.649,0.053 -1.925,0.168 -0.274,0.107 -0.461,0.408 -0.567,0.887 -0.053,0.248 -0.142,0.551 -0.239,0.922 l -0.062,0.21301 h -1.339 l 0.62,-3.13902 h 10.578 l -0.169,0.86101 -10.542,12.01452 h 4.814 c 1.259,0 2.013,-0.045 2.252,-0.14347 0.248,-0.105 0.435,-0.426 0.576,-0.984 0.018,-0.088 0.089,-0.363 0.213,-0.834 l 0.071,-0.23801 h 1.241 l -0.621,3.14649 z"
     id="path3840"
     inkscape:connector-curvature="0" /><path
     d="m 305.74806,115.73671 0.178,-0.94701 10.383,-11.92652 h -3.973 c -1.011,0 -1.648,0.053 -1.924,0.168 -0.274,0.107 -0.461,0.408 -0.576,0.887 -0.053,0.248 -0.133,0.551 -0.23,0.922 l -0.063,0.21301 h -1.338 l 0.62,-3.13902 h 10.577 l -0.168,0.86101 -10.551,12.01452 h 4.823 c 1.25,0 2.003,-0.045 2.252,-0.14347 0.248,-0.105 0.435,-0.426 0.576,-0.984 0.018,-0.088 0.089,-0.363 0.213,-0.834 l 0.062,-0.23801 h 1.25 l -0.62,3.14649 z"
     id="path3842"
     inkscape:connector-curvature="0" /><path
     d="m 331.56706,113.53822 c -2.536,1.67648 -4.779,2.50848 -6.721,2.50848 -1.286,0 -2.314,-0.434 -3.085,-1.30348 -0.764,-0.877 -1.153,-2.05701 -1.153,-3.52902 0,-2.47302 0.869,-4.69903 2.598,-6.66603 1.729,-1.961 3.68,-2.95301 5.853,-2.95301 0.815,0 1.507,0.248 2.057,0.74401 0.532,0.496 0.807,1.127 0.807,1.889 0,1.71101 -0.789,3.12101 -2.367,4.22101 -1.578,1.10001 -3.68,1.71102 -6.313,1.83602 l -0.018,0.656 c 0,1.21301 0.248,2.12702 0.762,2.74802 0.506,0.611 1.268,0.912 2.288,0.912 1.702,0 3.537,-0.734 5.515,-2.18901 z m -8.272,-3.99003 c 1.924,-0.143 3.44,-0.64801 4.54,-1.49801 1.099,-0.852 1.64,-1.951 1.64,-3.29901 0,-0.674 -0.133,-1.188 -0.416,-1.533 -0.284,-0.338 -0.701,-0.506 -1.26,-0.506 -1.117,0 -2.109,0.646 -2.952,1.932 -0.843,1.27701 -1.375,2.91801 -1.552,4.90402"
     id="path3844"
     inkscape:connector-curvature="0" /><path
     d="m 334.58206,115.7367 2.092,-10.52352 c 0.143,-0.70101 0.204,-1.30301 0.204,-1.80901 0,-0.275 -0.07,-0.436 -0.23,-0.496 -0.159,-0.055 -0.683,-0.125 -1.596,-0.195 l -0.23,-0.01 0.15,-0.78901 h 4.886 l -1.126,5.64802 c 2.447,-3.98001 4.806,-5.96702 7.058,-5.96702 0.222,0 0.435,0.035 0.621,0.123 l -1.073,2.86501 c -0.382,-0.16 -0.763,-0.258 -1.153,-0.258 -1.613,0 -3.546,1.65801 -5.798,4.95702 l -1.286,6.45351 h -2.519 z"
     id="path3846"
     inkscape:connector-curvature="0" /><path
     d="m 346.82606,115.72886 2.102,-10.51652 c 0.133,-0.70101 0.195,-1.31301 0.195,-1.80901 0,-0.275 -0.08,-0.436 -0.24,-0.506 -0.15,-0.053 -0.682,-0.115 -1.596,-0.186 l -0.222,-0.01 0.151,-0.78901 h 4.876 l -2.101,10.52505 c -0.134,0.69101 -0.195,1.30301 -0.195,1.81601 0,0.275 0.07,0.443 0.23,0.498 0.159,0.061 0.683,0.11547 1.596,0.17647 l 0.23,0.01 -0.15,0.78901 h -4.876 z m 3.254,-16.322641 0.497,-2.502009 h 2.526 l -0.505,2.502009 z"
     id="path3848"
     inkscape:connector-curvature="0" /><path
     d="m 364.84206,113.53822 c -2.536,1.67648 -4.779,2.50848 -6.721,2.50848 -1.286,0 -2.314,-0.434 -3.085,-1.30348 -0.771,-0.877 -1.153,-2.05701 -1.153,-3.52902 0,-2.47302 0.869,-4.69903 2.599,-6.66603 1.729,-1.961 3.679,-2.95301 5.852,-2.95301 0.815,0 1.507,0.248 2.057,0.74401 0.532,0.496 0.807,1.127 0.807,1.889 0,1.71101 -0.789,3.12101 -2.367,4.22101 -1.578,1.10001 -3.68,1.71102 -6.313,1.83602 l -0.018,0.656 c 0,1.21301 0.248,2.12702 0.762,2.74802 0.506,0.611 1.269,0.912 2.288,0.912 1.702,0 3.537,-0.734 5.515,-2.18901 z m -8.272,-3.99003 c 1.924,-0.143 3.44,-0.64801 4.54,-1.49801 1.099,-0.852 1.64,-1.951 1.64,-3.29901 0,-0.674 -0.133,-1.188 -0.416,-1.533 -0.284,-0.338 -0.701,-0.506 -1.26,-0.506 -1.117,0 -2.109,0.646 -2.952,1.932 -0.843,1.27701 -1.374,2.91801 -1.552,4.90402"
     id="path3850"
     inkscape:connector-curvature="0" /><path
     d="m 379.29506,115.8887 c 0,-4.3465 -0.656,-8.09652 -1.977,-11.25253 -0.391,-0.922 -0.684,-1.463 -0.879,-1.605 -0.203,-0.141 -0.789,-0.248 -1.781,-0.318 l -0.23,-0.01 0.159,-0.78901 h 4.593 c 1.33,3.13102 2.137,6.80102 2.395,11.00406 l 2.322,-2.73002 c 1.995,-2.34202 2.979,-4.37102 2.979,-6.08203 0,-0.789 -0.319,-1.518 -0.958,-2.19101 h 3.086 c 0.177,0.40801 0.274,0.85201 0.274,1.34801 0,0.861 -0.425,1.88101 -1.241,3.08601 -0.824,1.197 -2.66,3.43202 -5.506,6.69304 l -2.456,2.84848 h -0.78 z"
     id="path3852"
     inkscape:connector-curvature="0" /><path
     d="m 398.25906,115.7367 2.093,-10.52352 c 0.142,-0.70901 0.204,-1.31301 0.204,-1.80901 0,-0.275 -0.08,-0.436 -0.23,-0.496 -0.16,-0.055 -0.691,-0.125 -1.596,-0.195 l -0.24,-0.01 0.16,-0.78901 h 4.885 l -1.125,5.61302 c 2.526,-3.94501 4.832,-5.92402 6.915,-5.92402 0.7,0 1.224,0.205 1.569,0.59601 0.346,0.398 0.515,0.982 0.515,1.791 0,0.283 -0.089,0.895 -0.267,1.81601 l -0.328,1.721 c 2.66,-3.96301 5.001,-5.93202 7.014,-5.93202 0.691,0 1.215,0.213 1.552,0.63901 0.346,0.426 0.522,1.063 0.522,1.924 0,0.398 -0.079,0.97501 -0.23,1.74601 l -1.294,6.53503 c -0.142,0.70901 -0.204,1.30301 -0.204,1.81601 0,0.268 0.071,0.443 0.239,0.498 0.151,0.061 0.683,0.11547 1.579,0.17647 l 0.248,0.01 -0.169,0.79701 h -4.867 l 2.11,-10.58652 c 0.062,-0.31101 0.088,-0.54901 0.088,-0.72701 0,-0.328 -0.053,-0.568 -0.168,-0.719 -0.124,-0.158 -0.284,-0.238 -0.523,-0.238 -0.683,0 -1.658,0.602 -2.926,1.79901 -1.268,1.19699 -2.358,2.555 -3.254,4.06101 l -1.277,6.41051 h -2.526 l 2.119,-10.58652 c 0.053,-0.31101 0.089,-0.54901 0.089,-0.72701 0,-0.328 -0.063,-0.568 -0.178,-0.719 -0.115,-0.158 -0.283,-0.238 -0.514,-0.238 -0.692,0 -1.658,0.602 -2.918,1.79101 -1.25,1.20499 -2.35,2.58 -3.28,4.13101 l -1.276,6.34851 z"
     id="path3854"
     inkscape:connector-curvature="0" /><path
     d="m 426.84506,116.0567 c -1.463,0 -2.563,-0.398 -3.29,-1.19701 -0.727,-0.79947 -1.099,-2.00447 -1.099,-3.59049 0,-2.54502 0.851,-4.79703 2.553,-6.75803 1.693,-1.941 3.653,-2.91601 5.888,-2.91601 1.489,0 2.606,0.39801 3.352,1.19701 0.744,0.789 1.117,1.977 1.117,3.56401 0,2.57 -0.86,4.83202 -2.581,6.77304 -1.701,1.94348 -3.688,2.92748 -5.94,2.92748 m 0.638,-0.975 c 1.356,0 2.536,-0.89648 3.573,-2.68849 1.011,-1.78101 1.534,-3.85703 1.534,-6.18903 0,-1.213 -0.195,-2.12701 -0.595,-2.73001 -0.381,-0.611 -0.966,-0.912 -1.755,-0.912 -1.321,0 -2.491,0.922 -3.511,2.75601 -1.012,1.828 -1.525,3.93801 -1.525,6.31402 0,1.02001 0.213,1.84402 0.639,2.49002 0.426,0.64947 0.966,0.95948 1.64,0.95948"
     id="path3856"
     inkscape:connector-curvature="0" /><path
     d="m 437.06806,116.04686 3.413,-17.111644 c 0.142,-0.701 0.213,-1.313003 0.213,-1.809003 0,-0.283003 -0.079,-0.443003 -0.239,-0.506003 -0.159,-0.053 -0.691,-0.123 -1.596,-0.186 l -0.222,-0.01 0.15,-0.789003 h 4.851 l -2.403,12.094133 c 1.037,-1.854 2.208,-3.33401 3.521,-4.45901 1.303,-1.117 2.509,-1.67601 3.617,-1.67601 0.922,0 1.613,0.275 2.065,0.79701 0.452,0.523 0.683,1.33 0.683,2.395 0,2.75801 -0.975,5.31103 -2.917,7.69504 -1.933,2.37748 -4.034,3.56449 -6.286,3.56449 -0.541,0 -1.055,-0.043 -1.569,-0.15 -0.496,-0.115 -0.976,-0.266 -1.437,-0.486 z m 3.786,-6.41051 -0.913,4.41603 c 0.522,0.248 1.046,0.443 1.568,0.566 0.532,0.135 1.064,0.19547 1.597,0.19547 1.259,0 2.287,-0.58447 3.076,-1.73647 0.612,-0.89601 1.153,-2.11102 1.597,-3.64503 0.443,-1.53501 0.664,-2.91802 0.664,-4.13301 0,-0.61101 -0.105,-1.06301 -0.292,-1.37301 -0.213,-0.303 -0.506,-0.443 -0.923,-0.443 -1.622,0.001 -3.741,2.04801 -6.374,6.15302"
     id="path3858"
     inkscape:connector-curvature="0" /><path
     d="m 453.00106,115.72886 2.102,-10.51652 c 0.133,-0.70101 0.194,-1.31301 0.194,-1.80901 0,-0.275 -0.079,-0.436 -0.23,-0.506 -0.159,-0.053 -0.691,-0.115 -1.596,-0.186 l -0.23,-0.01 0.15,-0.78901 h 4.877 l -2.092,10.52505 c -0.143,0.69101 -0.205,1.30301 -0.205,1.81601 0,0.275 0.071,0.443 0.24,0.498 0.15,0.061 0.683,0.11547 1.587,0.17647 l 0.239,0.01 -0.159,0.78901 h -4.877 z m 3.253,-16.322641 0.497,-2.502009 h 2.526 l -0.496,2.502009 z"
     id="path3860"
     inkscape:connector-curvature="0" /><path
     d="m 460.21806,115.73686 3.342,-16.801644 c 0.143,-0.701 0.204,-1.295003 0.204,-1.826003 0,-0.258003 -0.071,-0.436003 -0.239,-0.488003 -0.15,-0.063 -0.683,-0.115 -1.596,-0.178 l -0.222,-0.008 0.15,-0.799003 h 4.877 l -3.352,16.803163 c -0.124,0.69901 -0.204,1.29501 -0.204,1.81601 0,0.268 0.089,0.443 0.239,0.498 0.151,0.061 0.691,0.11547 1.596,0.17647 l 0.231,0.01 -0.16,0.79701 z"
     id="path3862"
     inkscape:connector-curvature="0" /><path
     d="m 475.84006,115.7367 1.126,-5.6465 c -2.199,3.97102 -4.389,5.9575 -6.561,5.9575 -0.684,0 -1.197,-0.195 -1.534,-0.594 -0.346,-0.398 -0.523,-1.00247 -0.523,-1.79148 0,-0.408 0.08,-1.00201 0.248,-1.79902 l 1.321,-6.65002 c 0.143,-0.70101 0.204,-1.30301 0.204,-1.80901 0,-0.275 -0.071,-0.436 -0.23,-0.496 -0.159,-0.055 -0.691,-0.125 -1.596,-0.195 l -0.231,-0.01 0.151,-0.78901 h 4.894 l -2.039,10.14505 c -0.088,0.559 -0.142,0.91201 -0.142,1.08001 0,0.285 0.071,0.506 0.222,0.648 0.133,0.15 0.346,0.213 0.604,0.213 1.107,0 2.979,-1.96101 5.611,-5.90604 l 1.225,-6.18002 h 2.526 l -2.075,10.37505 c -0.133,0.73401 -0.203,1.38301 -0.203,1.93201 0,0.283 0.08,0.461 0.239,0.523 0.159,0.062 0.683,0.12547 1.596,0.18647 l 0.222,0.01 -0.142,0.79701 h -4.913 z"
     id="path3864"
     inkscape:connector-curvature="0" /><rect
     x="-0.087944053"
     y="10.830449"
     width="515.91602"
     height="128.677"
     id="rect3866"
     style="fill:none" /></svg>